<?xml version="1.0" encoding="utf-8"?>
<!-- Generator: Adobe Illustrator 16.0.0, SVG Export Plug-In . SVG Version: 6.00 Build 0)  -->
<!DOCTYPE svg PUBLIC "-//W3C//DTD SVG 1.1//EN" "http://www.w3.org/Graphics/SVG/1.1/DTD/svg11.dtd">
<svg version="1.1" xmlns="http://www.w3.org/2000/svg" xmlns:xlink="http://www.w3.org/1999/xlink" x="0px" y="0px" width="256px"
	 height="256px" viewBox="0 0 256 256" enable-background="new 0 0 256 256" xml:space="preserve">
<g id="search">
	<path fill="none" stroke="#E6E6E6" stroke-width="25" stroke-miterlimit="10" d="M156.395,39.462
		c32.164,32.167,32.164,84.318,0,116.48c-32.165,32.167-84.317,32.166-116.48,0c-32.167-32.162-32.167-84.314,0-116.48
		C72.079,7.297,124.229,7.297,156.395,39.462z"/>
	
		<line fill="none" stroke="#E6E6E6" stroke-width="25" stroke-miterlimit="10" x1="244.896" y1="244.044" x2="158.374" y2="157.521"/>
</g>
<g id="settings" display="none">
	<g display="inline">
		<path fill-rule="evenodd" clip-rule="evenodd" fill="#E2E2E2" d="M243.183,123.594c0.654-9.527,2.565-19.542-12.228-22.97
			c-20.776-4.813-22.982-13.497-13.993-33.853c1.519-3.434,1.361-8.338,0.268-12.769c-7.146-4.62-13.494-10.416-19.769-16.462
			c-1.236-1.192-1.866-2.516-2.04-3.833c-2.624-1.41-5.254-2.805-7.896-4.175c-25.683,12.792-34.938,9.758-38.245-8.479
			c-3.113-17.183-13.824-15.1-25.138-15.121c-12.003-0.022-23.833-2.448-26.714,15.951c-2.662,16.984-16.448,22.474-29.294,12.025
			c-12.525-10.195-19.073-3.704-26.494,4.775c-7.763,8.866-22.46,14.46-10.211,31.371c9.831,13.576,4.246,27.318-11.956,29.94
			c-15.141,2.453-16.37,10.99-15.41,22.6c0.973,11.793-5.04,25.839,15.141,29.495c16.979,3.076,21.908,15.824,12.229,29.84
			c-7.667,11.11-5.252,17.75,3.798,25.233c1.692,1.398,3.347,2.842,4.972,4.305c1.417,0.285,2.794,0.626,4.069,0.955
			c3.966,1.023,7.88,2.229,11.829,3.315c2.896,0.798,6.356,1.72,8.233,1.703c1.049,0.008,1.959,0.221,2.76,0.562
			c17.242-9.204,18.799-4.563,33.718,19.987c4.074,6.703,21.065,7.274,32.117,7.274c5.146-0.006,12.953-7.161,14.96-12.728
			c6.002-16.653,13.806-22.344,26.759-17.148c0.76-0.611,1.627-1.083,2.521-1.366c8.173-2.595,16.961-2.15,25.093-4.784
			c2.743-0.889,6.099-2.252,8.9-4.2c1.284-2.531,2.245-5.158,3.193-7.869c0.606-1.736,1.671-2.943,2.94-3.708
			c0.443-3.123,0.352-6.118-0.681-8.479c-8.716-19.945-6.695-28.101,14.719-33.775C248.801,146.577,242.483,133.778,243.183,123.594
			z M180.299,127.762c-1.04,30.549-26.923,55.274-57.412,54.842c-30.229-0.432-55.867-26.29-55.968-56.458
			c-0.101-31.208,26.323-57.285,57.583-56.824C155.996,69.787,181.367,96.358,180.299,127.762z"/>
	</g>
	<g display="inline">
		<path fill-rule="evenodd" clip-rule="evenodd" fill="#E2E2E2" d="M231.398,149.095c2.794-1.104,5.48-3.634,7.639-6.609
			c-0.207-2.238-0.474-4.391-0.646-6.304c-0.463-5.123-1.285-10.287-0.902-15.432c0.236-3.166,1.414-6.181,2.106-9.246
			c-0.983-3.208-1.985-6.407-3.022-9.594c-27.271-8.918-31.733-17.576-21.286-32.886c9.845-14.423,0.754-20.458-7.289-28.415
			c-8.533-8.442-15.256-18.474-30.223-7.392c-13.818,10.228-27.49,4.46-29.305-11.999c-1.765-16.053-10.984-16.026-22.221-15.197
			c-11.752,0.865-26.147-5.468-29.294,15.175c-2.528,16.57-16.152,22.437-29.532,12.931c-12.505-8.882-19.374-3.665-26.839,5.278
			c-7.586,9.083-21.728,14.866-9.92,31.635c9.933,14.109,4.495,26.648-12.237,29.836c-13.26,2.531-16.201,8.955-15.008,20.638
			c0.223,2.184,0.389,4.374,0.519,6.556c0.81,1.198,1.551,2.407,2.228,3.536c2.106,3.514,4.048,7.119,6.097,10.665
			c1.503,2.602,3.32,5.687,4.668,6.992c0.741,0.742,1.241,1.532,1.572,2.338c18.741,5.548,16.591,9.946,9.984,37.904
			c-1.804,7.633,9.896,19.968,17.768,27.726c3.669,3.608,14.252,3.992,19.589,1.437c15.965-7.647,25.517-6.223,31.096,6.57
			c0.97,0.098,1.919,0.371,2.754,0.796c7.642,3.89,13.589,10.375,21.23,14.207c2.577,1.293,5.924,2.678,9.287,3.257
			c2.691-0.901,5.22-2.098,7.798-3.363c1.651-0.811,3.257-0.923,4.697-0.576c2.509-1.913,4.545-4.111,5.468-6.518
			c7.793-20.323,14.957-24.713,34.192-13.723c15.689,8.966,20.174-4.585,27.821-11.347c7.153-6.326,15.544-12.117,7.415-24.943
			C206.183,165.017,210.707,157.283,231.398,149.095z M162.474,166.797c-22.186,21.027-57.976,20.469-79.387-1.242
			c-21.226-21.527-21.334-57.941-0.229-79.498c21.835-22.297,58.96-22.321,80.899-0.05
			C185.861,108.447,185.278,145.182,162.474,166.797z"/>
	</g>
</g>
<g id="home" display="none">
	<polygon display="inline" fill="#F2F2F2" points="254.614,118 127.477,0.21 0.337,118 1,118 1,254 46,254 46,178 107,178 107,254 
		256,254 256,118 	"/>
</g>
<g id="call" display="none">
	<path display="inline" fill="none" stroke="#E6E6E6" stroke-width="48" stroke-miterlimit="10" d="M199.088,22.757
		c32.879,32.878,47.752,58.19-42.016,147.956c-89.765,89.766-105.131,55.05-138.01,22.172"/>
</g>
<g id="Checks" display="none">
	
		<rect x="34.5" y="73.5" display="inline" fill="none" stroke="#D8D8D8" stroke-width="15" stroke-miterlimit="10" width="151" height="151"/>
	<polygon display="inline" fill="#96FF80" points="78.889,199.141 203.298,6.493 220.861,33.69 96.453,226.338 	"/>
	<polygon display="inline" fill="#96FF80" points="44.493,93.751 113.284,200.273 96.453,226.338 27.662,119.815 	"/>
</g>
</svg>
