<?xml version="1.0" encoding="utf-8"?>
<!-- Generator: Adobe Illustrator 16.0.0, SVG Export Plug-In . SVG Version: 6.00 Build 0)  -->
<!DOCTYPE svg PUBLIC "-//W3C//DTD SVG 1.1//EN" "http://www.w3.org/Graphics/SVG/1.1/DTD/svg11.dtd">
<svg version="1.1" id="Layer_1" xmlns="http://www.w3.org/2000/svg" xmlns:xlink="http://www.w3.org/1999/xlink" x="0px" y="0px"
	 width="256px" height="256px" viewBox="0 0 256 256" enable-background="new 0 0 256 256" xml:space="preserve">
<g id="search" display="none">
	<path display="inline" fill="none" stroke="#E6E6E6" stroke-width="25" stroke-miterlimit="10" d="M156.395,39.462
		c32.164,32.167,32.164,84.318,0,116.479c-32.165,32.168-84.316,32.166-116.479,0c-32.167-32.161-32.167-84.313,0-116.479
		C72.079,7.297,124.229,7.297,156.395,39.462z"/>
	
		<line display="inline" fill="none" stroke="#E6E6E6" stroke-width="25" stroke-miterlimit="10" x1="244.896" y1="244.044" x2="158.374" y2="157.521"/>
</g>
<g id="settings" display="none">
	
		<line display="inline" fill="none" stroke="#E6E6E6" stroke-width="25" stroke-miterlimit="10" x1="84.675" y1="86.839" x2="176.6" y2="178.764"/>
	<path display="inline" fill="none" stroke="#E6E6E6" stroke-width="25" stroke-miterlimit="10" d="M77.183,13.367
		c23.255,23.255,25.938,44.446,2.683,67.701c-23.254,23.254-43,19.127-66.255-4.128"/>
	<path display="inline" fill="none" stroke="#E6E6E6" stroke-width="25" stroke-miterlimit="10" d="M180.898,244.229
		c-23.254-23.254-25.938-44.444-2.683-67.699c23.255-23.254,43-19.127,66.255,4.128"/>
</g>
<g id="home" display="none">
	<polygon display="inline" fill="#F2F2F2" points="254.613,118 127.477,0.21 0.337,118 1,118 1,254 46,254 46,178 107,178 107,254 
		256,254 256,118 	"/>
</g>
<g id="online_x2F_offline" display="none">
	<circle display="inline" fill="#4BBC4B" cx="128.667" cy="127.333" r="128"/>
	<circle display="inline" fill="#999999" cx="128.667" cy="127.333" r="128"/>
</g>
<g id="call" display="none">
	<path display="inline" fill="none" stroke="#E6E6E6" stroke-width="48" stroke-miterlimit="10" d="M199.088,22.757
		c32.879,32.878,47.752,58.19-42.016,147.956c-89.765,89.766-105.131,55.051-138.01,22.172"/>
</g>
<g id="undo">
	<g>
		<path fill="#2E3192" d="M58.453,83.658c0,0,0.774-0.983,2.393-2.667c0.806-0.848,1.822-1.87,3.065-3.019
			c1.23-1.172,2.695-2.45,4.378-3.847c3.363-2.8,7.654-5.963,12.929-9.169c5.271-3.211,11.552-6.421,18.909-9.124
			c7.348-2.694,15.83-4.824,25.311-5.519c9.448-0.694,19.972,0.157,30.476,3.484c10.517,3.256,20.68,9.249,29.179,16.853
			c1.05,0.96,2.102,1.925,3.137,2.913c0.512,0.496,1.057,0.975,1.54,1.49l1.423,1.565l2.84,3.157l1.402,1.602l1.262,1.668
			l2.517,3.355c0.826,1.125,1.715,2.233,2.401,3.415l2.189,3.501l1.089,1.756l0.543,0.878l0.271,0.44l0.136,0.22l0.067,0.11
			c0.15,0.271-0.239-0.452,0.354,0.636l3.275,6.317c0.518,0.927,1.162,2.428,1.729,3.737l1.722,4.032l0.845,2.017
			c0.253,0.663,0.461,1.31,0.692,1.965c0.437,1.311,0.873,2.62,1.309,3.927c0.923,2.583,1.541,5.312,2.199,7.987
			c2.539,10.756,3.191,21.94,1.983,32.461c-1.162,10.544-4.236,20.328-8.261,28.768c-4.021,8.467-8.954,15.644-14.021,21.608
			c-5.08,5.969-10.289,10.762-15.161,14.58c-4.871,3.823-9.372,6.717-13.199,8.859c-1.905,1.08-3.635,1.981-5.179,2.701
			c-1.518,0.749-2.854,1.312-3.936,1.755c-2.164,0.888-3.367,1.237-3.367,1.237s0.721-1.002,2.071-2.88
			c0.66-0.938,1.465-2.094,2.391-3.45c0.467-0.674,0.952-1.409,1.466-2.193c0.523-0.772,1.077-1.589,1.634-2.475
			c2.256-3.509,4.901-7.752,7.608-12.669c2.696-4.921,5.498-10.48,7.989-16.571c2.493-6.085,4.678-12.692,6.144-19.595
			c1.475-6.902,2.221-14.088,1.884-21.337c-0.3-7.252-1.615-14.562-3.885-21.855c-0.632-1.813-1.075-3.664-1.885-5.464l-1.072-2.724
			c-0.175-0.452-0.337-0.926-0.52-1.36l-0.583-1.226l-1.139-2.463c-0.407-0.848-0.63-1.558-1.279-2.699l-3.337-6.285
			c0.559,1.023,0.127,0.238,0.239,0.445l-0.05-0.079l-0.098-0.159l-0.195-0.318l-0.39-0.636l-0.777-1.274l-1.543-2.555
			c-0.489-0.883-1.087-1.628-1.632-2.432l-1.655-2.386c-2.273-3.09-4.633-6.007-7.169-8.61c-2.51-2.642-5.187-4.957-7.958-7.076
			l-0.509-0.417l-0.541-0.356l-1.078-0.716c-0.718-0.488-1.433-0.975-2.146-1.46c-1.513-0.802-2.967-1.733-4.498-2.503
			c-6.126-3.064-12.808-5.075-19.645-6.201c-6.833-1.128-13.775-1.404-20.345-1.155c-6.578,0.237-12.784,0.947-18.354,1.753
			c-5.57,0.822-10.492,1.793-14.581,2.656c-2.052,0.458-3.884,0.868-5.478,1.224c-1.608,0.386-2.977,0.714-4.086,0.98
			C59.649,83.355,58.453,83.658,58.453,83.658z"/>
	</g>
</g>
<polygon fill="#2E3192" points="145.28,119.186 23.224,101.283 109.858,13.46 "/>
<g id="redo" display="none">
	<g display="inline">
		<path fill="#2E3192" d="M237.744,84.391l-133.788,68.917V133.41l112.739-56.514V76.32L103.956,19.805V-0.09l133.788,68.913V84.391
			L237.744,84.391z"/>
	</g>
	<path display="inline" fill="none" stroke="#2E3192" stroke-width="17" stroke-miterlimit="10" d="M126.105,77.74
		c0,0-211.852,49.109-8.185,170.926"/>
</g>
<g id="thickness" display="none">
	<circle display="inline" cx="77.054" cy="132.36" r="77.388"/>
	<circle display="inline" cx="158.359" cy="132.36" r="97.306"/>
</g>
<g id="anocheck" display="none">
	<circle display="inline" fill="#E6E6E6" cx="128" cy="128" r="128"/>
	<polygon display="inline" fill="#96FF80" points="78.462,213.783 195.359,32.769 211.861,58.323 94.966,239.338 	"/>
	<polygon display="inline" fill="#96FF80" points="46.144,114.757 110.781,214.848 94.966,239.338 30.329,139.248 	"/>
</g>
<g id="anocross" display="none">
	<circle display="inline" fill="#E6E6E6" cx="128" cy="128" r="128"/>
	<polygon display="inline" fill="#51A8CE" points="42.634,193.955 201.57,32 213.182,61.857 54.244,223.813 	"/>
	<polygon display="inline" fill="#51A8CE" points="61.857,42.634 223.813,201.57 193.955,213.178 32,54.243 	"/>
</g>
<g id="undo_1_" display="none">
	<g display="inline">
		<path fill="#2E3192" d="M102.812,239.31c0,0-1.202-0.352-3.363-1.242c-1.081-0.445-2.415-1.009-3.931-1.76
			c-1.542-0.722-3.271-1.624-5.173-2.707c-3.823-2.146-8.32-5.041-13.185-8.868c-4.869-3.819-10.072-8.613-15.148-14.581
			c-5.063-5.965-9.993-13.139-14.013-21.601c-4.023-8.436-7.098-18.214-8.265-28.752c-1.22-10.517-0.56-21.696,1.968-32.451
			c2.499-10.776,6.751-21.087,12.028-30.517l0.57-0.955l0.235-0.377l0.471-0.755l0.942-1.51l1.883-3.018
			c0.52-0.905,1.53-2.272,2.392-3.448l2.684-3.611l1.354-1.789l1.401-1.604l2.836-3.162l1.423-1.565
			c0.483-0.516,1.028-0.994,1.54-1.491c1.039-0.984,2.078-1.963,3.132-2.919c8.495-7.614,18.667-13.603,29.184-16.871
			c10.508-3.333,21.039-4.188,30.491-3.495c9.485,0.694,17.972,2.826,25.322,5.524c7.359,2.706,13.641,5.921,18.912,9.136
			c5.273,3.213,9.563,6.379,12.925,9.185c1.682,1.401,3.146,2.68,4.376,3.854c1.241,1.151,2.257,2.174,3.062,3.024
			c1.616,1.687,2.39,2.672,2.39,2.672s-1.197-0.301-3.442-0.865c-1.11-0.265-2.479-0.591-4.089-0.974
			c-1.595-0.354-3.428-0.761-5.481-1.216c-4.09-0.857-9.013-1.825-14.584-2.64c-5.571-0.803-11.776-1.506-18.353-1.741
			c-6.567-0.245-13.505,0.033-20.333,1.16c-6.833,1.126-13.508,3.133-19.63,6.19c-6.149,3.028-11.663,7.303-16.725,12.51
			c-0.612,0.681-1.242,1.343-1.875,2.002c-0.311,0.337-0.645,0.642-0.94,1.004l-0.873,1.109c-0.586,0.736-1.165,1.477-1.766,2.2
			l-0.903,1.083l-0.73,1.077l-1.489,2.13c-0.509,0.753-0.985,1.241-1.641,2.399l-1.849,3.039l-0.925,1.52l-0.462,0.76l-0.231,0.38
			l-0.118,0.189l-0.059,0.094c0.132-0.224-0.379,0.635,0.282-0.479c-3.996,7.129-7.282,14.392-9.558,21.687
			c-2.281,7.294-3.588,14.61-3.9,21.865c-0.341,7.255,0.404,14.446,1.879,21.353c1.467,6.907,3.655,13.517,6.152,19.603
			c2.495,6.092,5.302,11.65,8.002,16.57c2.713,4.913,5.362,9.154,7.622,12.659c0.558,0.886,1.113,1.7,1.638,2.472
			c0.513,0.785,1.001,1.519,1.468,2.191c0.928,1.354,1.734,2.509,2.396,3.445C102.09,238.31,102.812,239.31,102.812,239.31z"/>
	</g>
</g>
<polygon display="none" fill="#2E3192" points="114.425,119.186 236.48,101.283 149.847,13.46 "/>
</svg>
