<?xml version="1.0" encoding="utf-8"?>
<!-- Generator: Adobe Illustrator 16.0.0, SVG Export Plug-In . SVG Version: 6.00 Build 0)  -->
<!DOCTYPE svg PUBLIC "-//W3C//DTD SVG 1.1//EN" "http://www.w3.org/Graphics/SVG/1.1/DTD/svg11.dtd">
<svg version="1.1" xmlns="http://www.w3.org/2000/svg" xmlns:xlink="http://www.w3.org/1999/xlink" x="0px" y="0px" width="120px"
	 height="120px" viewBox="0 0 120 120" enable-background="new 0 0 120 120" xml:space="preserve">
<g id="Layer_2" display="none">
	<rect x="-0.022" y="0.001" display="inline" fill="#232323" width="119.999" height="119.998"/>
</g>
<g id="Flat" display="none">
	<g display="inline">
		<path fill="#EAEAEA" d="M83.407,26.13c0.127-0.075,0.12-0.03,0.061,0.061C83.445,26.168,83.429,26.153,83.407,26.13z"/>
		<path fill="#EAEAEA" d="M97.223,12.923l-10.185,12.39c-0.158-0.33-0.413-0.615-0.744-0.81c-0.885-0.518-2.039-0.203-2.565,0.674
			c-0.321,0.548-0.622,1.11-0.996,1.628c-0.487,0.667-0.256,1.716,0.292,2.272c0.173,0.172,0.376,0.308,0.592,0.397l-17.632,21.45
			l-1.485,1.808l-0.209,0.262l-5.107,6.202l-1.598,1.942l-0.12,0.15l-4.41,5.369l-3.96,4.815c-0.105-1.027-0.322-2.047-0.593-3.128
			c-0.757-3.096-1.042-6.321-1.74-9.442c-0.577-2.603-1.754-4.92-3.127-7.185c-1.561-2.58-2.64-5.316-3.915-8.039
			c-0.144-0.315-0.338-0.541-0.556-0.69c-0.84-3.015-1.897-5.962-3.315-8.812c-0.277-0.555-0.832-0.855-1.41-0.908
			c-0.533-1.769-1.11-3.532-1.777-5.265c-0.405-1.05-1.418-1.395-2.288-1.23c-0.007,0-0.007,0.008-0.015,0.008
			c-0.825,0.308-1.5,1.117-1.313,2.212c0.405,2.377,0.81,4.748,1.208,7.125c-0.728,0.218-1.35,0.839-1.403,1.755
			c-0.09,1.53-0.06,3.06-0.03,4.59c-0.158,6.157-0.795,12.277-1.29,18.412C27,67.396,25.95,74.22,26.603,80.752
			c0.127,1.245,1.08,1.891,2.01,1.808c-0.413,3.232-0.698,6.563,0.18,9.563c0.353,1.193,1.395,1.538,2.28,1.246
			c0.015,0,0.023,0,0.037-0.017l-9.652,11.745l0.51,0.421c-0.097,0.082-0.187,0.164-0.277,0.254
			c-0.008,0.008-0.023,0.022-0.031,0.031c-0.157-0.137-0.322-0.271-0.48-0.414C8.341,94.417,0.196,78.112,0.196,59.895
			c0-33.083,26.813-59.894,59.887-59.894C74.115,0.001,87.015,4.838,97.223,12.923z"/>
		<path fill="#C6C6C5" d="M21.458,105.097l0.51,0.421c-0.097,0.082-0.187,0.164-0.277,0.254l-0.511-0.383l9.893-12.021
			c0.015,0,0.023,0,0.037-0.017L21.458,105.097z"/>
		<g>
			<path fill="#C6C6C5" d="M83.468,26.191c-0.022-0.022-0.039-0.038-0.061-0.061C83.534,26.056,83.527,26.1,83.468,26.191z"/>
			<path fill="#C6C6C5" d="M86.97,27.067c-0.181,0.308-0.353,0.615-0.541,0.923c-0.142,0.24-0.292,0.48-0.457,0.706
				c-0.314-0.315-0.621-0.623-0.937-0.938l1.259-1.537l0.744-0.908C87.292,25.861,87.299,26.521,86.97,27.067z"/>
		</g>
		<g>
			<g>
				<path fill="#EAEAEA" d="M56.728,58.749c0,1.083,0.1,1.739,0.716,2.637c0.966,1.406,2.635,1.587,3.926,0.506
					c2.369-1.983,3.91-4.741,5.641-7.256c0.801-1.163,0.179-2.72-0.896-3.42c-0.183-0.119-0.364-0.237-0.547-0.356
					c0.383,0.498,0.767,0.996,1.149,1.494c0.016,0.104,0.031,0.207,0.047,0.311c-1.607,0-3.215,0-4.822,0
					c0.54,2.617-1.521,5.005-2.924,7.006c-1.409,2.011-2.754,4.085-3.201,6.539c1.637,0.222,3.274,0.443,4.911,0.665
					c-0.204-2.472-0.777-4.896-0.875-7.375c-1.637,0.222-3.274,0.443-4.911,0.665c0.407,2.833,0.761,5.598,2.252,8.098
					c0.299-1.14,0.598-2.28,0.897-3.42c-0.125,0.083-0.25,0.166-0.375,0.25c-2.669,1.777-0.169,6.109,2.523,4.316
					c0.125-0.083,0.25-0.166,0.375-0.25c1.125-0.749,1.626-2.198,0.896-3.42c-1.239-2.078-1.41-4.554-1.748-6.903
					c-0.404-2.813-5.02-2.112-4.911,0.665c0.098,2.487,0.67,4.9,0.875,7.375c0.218,2.631,4.374,3.616,4.911,0.665
					c0.552-3.04,2.858-5.428,4.464-7.973c1.604-2.541,2.269-5.279,1.661-8.231c-0.532-2.58-4.088-2.186-4.822,0
					c-0.622,1.854,0.074,3.172,1.649,4.198c-0.299-1.14-0.598-2.28-0.896-3.42c-1.503,2.183-2.804,4.523-4.859,6.244
					c1.309,0.168,2.618,0.337,3.926,0.506c-0.011-0.038-0.022-0.076-0.033-0.113C61.729,55.524,56.728,55.524,56.728,58.749
					L56.728,58.749z"/>
			</g>
		</g>
		<g>
			<path fill="#C9C9C9" d="M98.578,14.019l-0.884-0.72c-0.157-0.128-0.315-0.248-0.472-0.375l-10.185,12.39
				c0.254,0.548,0.261,1.208-0.068,1.754c-0.181,0.308-0.353,0.615-0.541,0.923c-0.142,0.24-0.292,0.48-0.457,0.706
				c-0.314-0.315-0.621-0.623-0.937-0.938l1.259-1.537l0.744-0.908c-0.158-0.33-0.413-0.615-0.744-0.81
				c-0.885-0.518-2.039-0.203-2.565,0.674c-0.321,0.548-0.622,1.11-0.996,1.628c-0.487,0.667-0.256,1.716,0.292,2.272
				c0.173,0.172,0.376,0.308,0.592,0.397l-17.632,21.45c0.149,0.21,0.293,0.428,0.429,0.653c0.891,1.53,1.199,3.119,1.125,4.762
				c0.007-0.015,0.007-0.03,0.007-0.045c-0.007,0.075-0.007,0.15-0.007,0.225c0,0.022,0,0.053-0.009,0.075
				c-0.008,0.112-0.015,0.225-0.015,0.337c0.21,1.14,0.397,2.287,0.338,3.442c-0.218,4.762-3.811,8.752-8.752,8.752
				c-2.235,0-4.417-0.945-6.045-2.468l-3.96,4.815c-0.105-1.027-0.322-2.047-0.593-3.128c-0.757-3.096-1.042-6.321-1.74-9.442
				c-0.577-2.603-1.754-4.92-3.127-7.185c-1.561-2.58-2.64-5.316-3.915-8.039c-0.144-0.315-0.338-0.541-0.556-0.69
				c-0.84-3.015-1.897-5.962-3.315-8.812c-0.277-0.555-0.832-0.855-1.41-0.908c-0.533-1.769-1.11-3.532-1.777-5.265
				c-0.405-1.05-1.418-1.395-2.288-1.23c-0.007,0-0.007,0.008-0.015,0.008c-0.825,0.308-1.5,1.117-1.313,2.212
				c0.405,2.377,0.81,4.748,1.208,7.125c-0.728,0.218-1.35,0.839-1.403,1.755c-0.09,1.53-0.06,3.06-0.03,4.59
				c-0.158,6.157-0.795,12.277-1.29,18.412C27,67.396,25.95,74.22,26.603,80.752c0.127,1.245,1.08,1.891,2.01,1.808
				c-0.413,3.232-0.698,6.563,0.18,9.563c0.353,1.193,1.395,1.538,2.28,1.246c0.015,0,0.023,0,0.037-0.017l-9.652,11.745l0.51,0.421
				c-0.097,0.082-0.187,0.164-0.277,0.254l6.179,4.598c9.308,5.948,20.355,9.412,32.212,9.412c33.082,0,59.894-26.813,59.894-59.886
				C119.977,41.475,111.659,25.005,98.578,14.019z M83.407,26.13c0.127-0.075,0.12-0.03,0.061,0.061
				C83.445,26.168,83.429,26.153,83.407,26.13z"/>
			<path fill="#C9C9C9" d="M86.97,27.067c-0.181,0.308-0.353,0.615-0.541,0.923c-0.142,0.24-0.292,0.48-0.457,0.706
				c-0.314-0.315-0.621-0.623-0.937-0.938l1.259-1.537l0.744-0.908C87.292,25.861,87.299,26.521,86.97,27.067z"/>
			<path fill="#C9C9C9" d="M29.048,28.996c-0.465-1.192,0.33-2.025,1.313-2.212C29.536,27.091,28.86,27.9,29.048,28.996z"/>
			<path fill="#C9C9C9" d="M32.663,28.005c-0.405-1.05-1.418-1.395-2.288-1.23C31.32,26.431,32.445,26.731,32.663,28.005z"/>
		</g>
	</g>
</g>
<g id="Short" display="none">
	<circle display="inline" fill="#E5E5E5" cx="58.71" cy="60.694" r="52.099"/>
	<path display="inline" fill="#CFCECE" d="M80.781,13.568c0.146,2.042-0.326,4.114-1.409,5.773c0.101,1.011,0.077,2.059-0.078,3.112
		c-0.526,3.553-2.187,6.691-3.051,10.15c-0.86,3.443-1.354,6.964-2.207,10.406c-1.55,6.27-4.996,12.438-5.681,18.865
		c-0.504,4.742-3.601,8.753-8.753,8.753c-4.768,0-8.759-3.982-8.754-8.753c0.007-6.421-3.643-12.569-5.46-18.632
		c-1.915-6.385-3.905-12.741-6.232-18.988c-0.804,0.218-1.61,0.43-2.414,0.652c-2.188,0.603-4.366,1.246-6.51,1.998
		c-0.244,0.086-1.155,0.575-1.649,0.748c-0.036,0.156-0.074,0.311-0.105,0.468c-0.356,1.951-0.627,3.909-1.192,5.816
		c-0.883,2.988-2.034,5.878-3.078,8.808c0.258,0.525,0.458,1.085,0.585,1.679c2.027,9.448,0.206,18.963,0.555,28.517
		c0.297,8.146,0.606,17.409-3.131,24.931c9.166,9.52,22.347,15.466,36.616,15.048c28.658-0.84,52.099-23.327,52.099-52.099
		C110.934,39.888,98.584,21.852,80.781,13.568z"/>
</g>
<g id="M" display="none">
	<polygon display="inline" fill="#50A3DA" points="119.977,105.337 96.967,105.337 96.967,105.344 85.342,105.344 85.342,25.875 
		85.2,25.875 64.335,85.785 52.357,85.785 31.568,27.533 31.426,27.533 31.426,105.344 21.177,105.386 21.533,21.25 -0.156,12.69 
		34.275,12.69 34.275,12.736 38.64,12.736 58.995,69.758 59.145,69.758 79.133,12.736 97.255,12.938 96.967,96.28 	"/>
</g>
<g id="Layer_5" display="none">
	<path display="inline" fill="#71CEE6" d="M54.428,66.071c0,1.823-1.049,3.3-2.345,3.3H20.804c-1.296,0-2.346-1.477-2.346-3.3V45.17
		c0-1.822,1.05-3.3,2.346-3.3h31.279c1.296,0,2.345,1.478,2.345,3.3V66.071z"/>
	<path display="inline" fill="#71CEE6" d="M88.885,58.431c0,2.215-1.278,4.01-2.852,4.01H31.542c-1.575,0-2.853-1.795-2.853-4.01
		V40.158c0-2.215,1.278-4.011,2.853-4.011h54.492c1.573,0,2.852,1.796,2.852,4.011V58.431z"/>
	<path display="inline" fill="#71CEE6" d="M105.495,64.932c0,2.215-1.276,4.012-2.854,4.012h-22.81
		c-1.575,0-2.852-1.797-2.852-4.012V48.219c0-2.215,1.276-4.011,2.852-4.011h22.81c1.577,0,2.854,1.796,2.854,4.011V64.932z"/>
	<path display="inline" fill="#71CEE6" d="M48.188,85.519c0,2.215-1.276,4.013-2.851,4.013H26.485c-1.574,0-2.851-1.798-2.851-4.013
		V68.584c0-2.215,1.277-4.011,2.851-4.011h18.852c1.575,0,2.851,1.796,2.851,4.011V85.519z"/>
	<path display="inline" fill="#71CEE6" d="M92.211,89.406c0,2.213-1.276,4.01-2.852,4.01H40.57c-1.575,0-2.852-1.797-2.852-4.01
		V64.671c0-2.216,1.276-4.012,2.852-4.012h48.79c1.575,0,2.852,1.796,2.852,4.012V89.406z"/>
	<path display="inline" fill="#71CEE6" d="M99.576,78.108c0,2.215-1.277,4.009-2.852,4.009H83.26c-1.575,0-2.851-1.794-2.851-4.009
		V59.835c0-2.215,1.275-4.011,2.851-4.011h13.465c1.574,0,2.852,1.796,2.852,4.011V78.108z"/>
	<path display="inline" fill="#71CEE6" d="M28.829,104.637c0,1.111-0.901,2.013-2.013,2.013H14.295
		c-1.111,0-2.013-0.901-2.013-2.013V96.14c0-1.111,0.901-2.012,2.013-2.012h12.521c1.111,0,2.013,0.9,2.013,2.012V104.637z"/>
	<path display="inline" fill="#71CEE6" d="M104.377,41.867c0,1.208-0.979,2.186-2.188,2.186h-6.317
		c-1.207,0-2.185-0.978-2.185-2.186V38.95c0-1.208,0.978-2.187,2.185-2.187h6.317c1.209,0,2.188,0.979,2.188,2.187V41.867z"/>
	<path display="inline" fill="#71CEE6" d="M115.852,103.41c0,1.529-1.24,2.77-2.771,2.77h-4.312c-1.529,0-2.771-1.24-2.771-2.77
		v-1.541c0-1.529,1.241-2.771,2.771-2.771h4.312c1.53,0,2.771,1.241,2.771,2.771V103.41z"/>
	<path display="inline" fill="#71CEE6" d="M11.79,40.104c0,1.3-1.054,2.355-2.354,2.355H5.773c-1.3,0-2.355-1.055-2.355-2.355v-1.31
		c0-1.3,1.055-2.354,2.355-2.354h3.663c1.3,0,2.354,1.055,2.354,2.354V40.104z"/>
	<path display="inline" fill="#71CEE6" d="M19.312,30.774c0,0.701-0.567,1.267-1.266,1.267h-1.971c-0.699,0-1.267-0.566-1.267-1.267
		v-0.703c0-0.7,0.568-1.267,1.267-1.267h1.971c0.699,0,1.266,0.566,1.266,1.267V30.774z"/>
	<path display="inline" fill="#FFFFFF" d="M40.398,87.896c-1.552,0-2.81-3.72-2.81-8.311V46.692c0-4.589,1.258-8.311,2.81-8.311l0,0
		c1.552,0,2.81,3.722,2.81,8.311v32.894C43.208,84.177,41.95,87.896,40.398,87.896L40.398,87.896z"/>
	<path display="inline" fill="#FFFFFF" d="M80.981,88.07c-1.553,0-2.812-3.719-2.812-8.311V46.866c0-4.589,1.259-8.311,2.812-8.311
		l0,0c1.551,0,2.81,3.721,2.81,8.311V79.76C83.791,84.352,82.532,88.07,80.981,88.07L80.981,88.07z"/>
	<path display="inline" fill="#FFFFFF" d="M59.823,66.903c-0.876-1.103,0.078-4.095,2.129-6.68l14.689-18.537
		c2.052-2.586,4.421-3.787,5.296-2.685l0,0c0.875,1.104-0.079,4.095-2.13,6.682L65.119,64.219
		C63.067,66.806,60.697,68.006,59.823,66.903L59.823,66.903z"/>
	<path display="inline" fill="#FFFFFF" d="M61.576,66.903c0.875-1.103-0.078-4.095-2.128-6.68L44.757,41.687
		c-2.05-2.586-4.421-3.787-5.296-2.685l0,0c-0.874,1.104,0.08,4.095,2.129,6.682l14.69,18.535
		C58.331,66.806,60.702,68.006,61.576,66.903L61.576,66.903z"/>
	<path display="inline" fill="#71CEE6" d="M110.727,87.062c0,0.518-0.419,0.937-0.938,0.937h-0.624c-0.52,0-0.938-0.419-0.938-0.937
		l0,0c0-0.519,0.418-0.938,0.938-0.938h0.624C110.308,86.124,110.727,86.543,110.727,87.062L110.727,87.062z"/>
</g>
<g id="Layer_6" display="none">
	<path display="inline" fill="#71CEE6" d="M42.929,66.696c0,1.822-1.049,3.299-2.345,3.299H9.304c-1.296,0-2.346-1.477-2.346-3.299
		V45.795c0-1.822,1.05-3.3,2.346-3.3h31.279c1.296,0,2.345,1.478,2.345,3.3V66.696z"/>
	<path display="inline" fill="#71CEE6" d="M39.063,86.019c0,2.215-1.277,4.014-2.852,4.014H17.36c-1.575,0-2.851-1.799-2.851-4.014
		V69.084c0-2.215,1.276-4.012,2.851-4.012h18.851c1.575,0,2.852,1.797,2.852,4.012V86.019z"/>
	<path display="inline" fill="#71CEE6" d="M74.457,66.696c0,1.822,1.049,3.299,2.346,3.299h31.279c1.295,0,2.346-1.477,2.346-3.299
		V45.795c0-1.822-1.051-3.3-2.346-3.3H76.803c-1.297,0-2.346,1.478-2.346,3.3V66.696z"/>
	<path display="inline" fill="#71CEE6" d="M78.323,86.019c0,2.215,1.276,4.014,2.852,4.014h18.851c1.574,0,2.851-1.799,2.851-4.014
		V69.084c0-2.215-1.276-4.012-2.851-4.012H81.175c-1.575,0-2.852,1.797-2.852,4.012V86.019z"/>
	<path display="inline" fill="#71CEE6" d="M89.353,92.374c0,1.242-1.008,2.25-2.25,2.25H31.229c-1.243,0-2.25-1.008-2.25-2.25V38.75
		c0-1.243,1.007-2.25,2.25-2.25h55.874c1.242,0,2.25,1.008,2.25,2.25V92.374z"/>
	<path display="inline" fill="#FFFFFF" d="M38.898,88.647c-1.552,0-2.811-3.72-2.811-8.312V47.442c0-4.589,1.258-8.311,2.811-8.311
		l0,0c1.552,0,2.81,3.721,2.81,8.311v32.894C41.708,84.928,40.45,88.647,38.898,88.647L38.898,88.647z"/>
	<path display="inline" fill="#FFFFFF" d="M79.48,88.82c-1.551,0-2.812-3.72-2.812-8.312V47.616c0-4.589,1.261-8.311,2.812-8.311
		l0,0c1.552,0,2.811,3.721,2.811,8.311v32.893C82.291,85.101,81.032,88.82,79.48,88.82L79.48,88.82z"/>
	<path display="inline" fill="#FFFFFF" d="M58.323,67.652c-0.876-1.101,0.078-4.095,2.128-6.68l14.691-18.536
		c2.05-2.586,4.419-3.787,5.295-2.684l0,0c0.875,1.104-0.08,4.094-2.13,6.682L63.618,64.97
		C61.568,67.556,59.197,68.757,58.323,67.652L58.323,67.652z"/>
	<path display="inline" fill="#FFFFFF" d="M60.077,67.652c0.875-1.101-0.079-4.095-2.129-6.68l-14.69-18.536
		c-2.05-2.586-4.421-3.787-5.296-2.684l0,0c-0.874,1.104,0.08,4.094,2.129,6.682L54.78,64.97
		C56.831,67.556,59.202,68.757,60.077,67.652L60.077,67.652z"/>
</g>
<g id="Layer_8">
	<path fill="#71CEE6" d="M41.012,51.178c0,2.078-1.197,3.762-2.674,3.762H2.675C1.197,54.939,0,53.256,0,51.178V27.349
		c0-2.078,1.197-3.763,2.675-3.763h35.663c1.477,0,2.674,1.685,2.674,3.763V51.178z"/>
	<path fill="#71CEE6" d="M36.604,70.209c0,2.525-1.457,4.576-3.251,4.576H11.86c-1.795,0-3.251-2.051-3.251-4.576V50.9
		c0-2.525,1.456-4.573,3.251-4.573h21.492c1.795,0,3.251,2.048,3.251,4.573V70.209z"/>
	<path fill="#71CEE6" d="M78.988,51.178c0,2.078,1.197,3.762,2.674,3.762h35.663c1.478,0,2.675-1.684,2.675-3.762V27.349
		c0-2.078-1.197-3.763-2.675-3.763H81.662c-1.477,0-2.674,1.685-2.674,3.763V51.178z"/>
	<path fill="#71CEE6" d="M83.396,70.209c0,2.525,1.456,4.576,3.251,4.576h21.492c1.796,0,3.251-2.051,3.251-4.576V50.9
		c0-2.525-1.455-4.573-3.251-4.573H86.647c-1.795,0-3.251,2.048-3.251,4.573V70.209z"/>
	<path fill="#71CEE6" d="M100.813,80.625c0,2.762-2.238,5-5,5H24.188c-2.761,0-5-2.238-5-5V19.25c0-2.761,2.239-5,5-5h71.625
		c2.762,0,5,2.239,5,5V80.625z"/>
	<text transform="matrix(1 0 0 1 24.0483 65.4316)" display="none" fill="#FFFFFF" font-family="'Neuropol'" font-size="66.7556">M</text>
	<g>
		<path fill="#FFFFFF" d="M97.828,67.877c0,1.429-0.592,2.327-1.773,2.697c-0.492,0.147-1.676,0.222-3.547,0.222
			c-1.92,0-2.881-0.973-2.881-2.919V38.768L65.431,68.616c-1.28,1.576-3.017,2.364-5.209,2.364c-2.216,0-3.965-0.788-5.246-2.364
			L30.336,38.62v29.257c0,1.946-0.96,2.919-2.881,2.919c-1.896,0-3.079-0.074-3.546-0.222c-1.182-0.37-1.773-1.269-1.773-2.697
			V30.124c0-2.783,1.527-4.175,4.581-4.175c1.995,0,3.596,0.715,4.802,2.143l28.814,34.097l28.15-34.134
			c1.182-1.428,2.732-2.143,4.654-2.143c3.127,0,4.691,1.515,4.691,4.544V67.877z"/>
	</g>
	<g>
		<path fill="#737EBD" d="M22.093,100.992c0,0.304-0.102,0.557-0.306,0.761c-0.205,0.204-0.458,0.307-0.761,0.307
			c-0.421,0-0.764-0.197-1.027-0.593l-1.946-2.826H8.804l-1.946,2.826c-0.211,0.31-0.438,0.464-0.682,0.464
			s-0.478-0.079-0.702-0.236c-0.25-0.172-0.375-0.372-0.375-0.604c0-0.072,0.02-0.138,0.06-0.197l6.936-10.602
			c0.283-0.435,0.771-0.652,1.462-0.652c0.514,0,0.856,0.145,1.027,0.435c0.013,0.02,0.028,0.048,0.044,0.084
			s0.041,0.081,0.074,0.134l7.351,10.404C22.08,100.742,22.093,100.841,22.093,100.992z M16.768,96.833l-3.33-4.911l-3.35,4.911
			H16.768z"/>
		<path fill="#737EBD" d="M29.02,93.187c0,0.646-0.257,0.969-0.771,0.969h-3.181v6.877c0,0.521-0.257,0.78-0.771,0.78
			c-0.514,0-0.813-0.023-0.899-0.069c-0.277-0.099-0.415-0.336-0.415-0.711v-8.468c0-1.864,1.558-2.796,4.673-2.796
			c0.534,0,0.866,0.029,0.998,0.089c0.244,0.118,0.366,0.411,0.366,0.879c0,0.514-0.257,0.771-0.771,0.771
			c-0.935,0-1.544,0.02-1.828,0.06c-0.883,0.132-1.324,0.415-1.324,0.85h3.152C28.763,92.416,29.02,92.673,29.02,93.187z"/>
		<path fill="#737EBD" d="M37.299,93.385c0,0.514-0.26,0.771-0.781,0.771h-3.3v6.877c0,0.521-0.257,0.78-0.771,0.78
			c-0.507,0-0.804-0.023-0.889-0.069c-0.283-0.105-0.425-0.343-0.425-0.711v-6.877c-0.276,0-0.502-0.005-0.677-0.015
			c-0.175-0.011-0.298-0.021-0.371-0.035c-0.33-0.111-0.494-0.385-0.494-0.82c0-0.435,0.165-0.708,0.494-0.819
			c0.072-0.014,0.196-0.025,0.371-0.035c0.174-0.01,0.4-0.015,0.677-0.015v-1.867c0-0.514,0.257-0.771,0.771-0.771
			c0.507,0,0.804,0.022,0.89,0.068c0.283,0.1,0.425,0.333,0.425,0.702v1.867h3.3C37.039,92.416,37.299,92.739,37.299,93.385z"/>
		<path fill="#737EBD" d="M51.033,97.237c0,0.573-0.194,0.86-0.583,0.86H40.085v0.069c0,0.896,0.527,1.472,1.581,1.729
			c0.23,0.053,0.564,0.094,1.003,0.124c0.438,0.029,0.996,0.044,1.675,0.044c0.514,0,0.771,0.323,0.771,0.969
			c0,0.521-0.257,0.78-0.771,0.78c-0.698,0-1.27-0.005-1.714-0.015c-0.445-0.01-0.782-0.028-1.013-0.055
			c-1.146-0.118-1.99-0.389-2.53-0.811c-0.771-0.599-1.156-1.304-1.156-2.114v-3.487c0-1.094,0.593-1.903,1.778-2.431
			c0.811-0.382,1.884-0.573,3.221-0.573h3.893c1.093,0,1.999,0.182,2.717,0.543c0.995,0.462,1.492,1.156,1.492,2.085V97.237z
			 M48.998,96.289v-1.166c0-0.711-1.413-1.066-4.239-1.066c-1.667,0-2.809,0.059-3.428,0.178c-0.876,0.164-1.314,0.487-1.314,0.968
			v1.087H48.998z"/>
		<path fill="#737EBD" d="M58.039,93.325c0,0.521-0.31,0.78-0.929,0.78c-0.086,0-0.209-0.005-0.371-0.015
			c-0.162-0.01-0.285-0.015-0.371-0.015c-1.601,0-2.401,0.398-2.401,1.195v5.761c0,0.382-0.145,0.622-0.435,0.721
			c-0.119,0.04-0.422,0.06-0.909,0.06c-0.494,0-0.741-0.264-0.741-0.79v-5.751c0-1.238,0.636-2.078,1.907-2.52
			c0.777-0.276,1.933-0.415,3.468-0.415C57.778,92.337,58.039,92.666,58.039,93.325z"/>
		<path fill="#737EBD" d="M76.555,101.032c0,0.521-0.257,0.78-0.771,0.78c-0.515,0-0.814-0.023-0.899-0.069
			c-0.283-0.099-0.425-0.336-0.425-0.711v-5.84c0-0.751-0.886-1.126-2.658-1.126h-0.276h-0.129c-0.072,0-0.111,0.003-0.118,0.01
			c-0.85,0.033-1.413,0.092-1.689,0.178c-0.619,0.185-0.929,0.586-0.929,1.205v5.573c0,0.375-0.142,0.612-0.425,0.711
			c-0.086,0.046-0.386,0.069-0.899,0.069c-0.521,0-0.781-0.26-0.781-0.78v-5.593c0-0.56-0.2-0.938-0.602-1.136
			c-0.277-0.139-0.729-0.208-1.354-0.208h-0.258h-0.168h-0.088c-0.054,0-0.083-0.003-0.09-0.01
			c-0.132-0.007-0.246-0.012-0.346-0.015c-0.099-0.004-0.182-0.005-0.247-0.005c-1.792,0-2.688,0.382-2.688,1.146v5.82
			c0,0.375-0.138,0.612-0.415,0.711c-0.085,0.046-0.385,0.069-0.899,0.069s-0.771-0.26-0.771-0.78V95.43
			c0-2.062,1.515-3.093,4.544-3.093c0.6,0,1.089,0.005,1.468,0.015c0.378,0.01,0.66,0.028,0.845,0.055
			c0.783,0.099,1.508,0.346,2.174,0.741c0.593-0.369,1.324-0.609,2.193-0.722c0.461-0.06,1.235-0.089,2.322-0.089
			c2.918,0,4.377,1.031,4.377,3.093V101.032z"/>
		<path fill="#737EBD" d="M91.771,98.967c0,1.897-1.423,2.846-4.269,2.846h-5.099c-1.093,0-2.038-0.201-2.835-0.603
			c-1.074-0.514-1.611-1.229-1.611-2.145V97.86c0-0.988,0.511-1.729,1.532-2.224c0.757-0.382,1.705-0.572,2.845-0.572h7.371
			c-0.112-0.666-1.054-0.998-2.825-0.998c-0.073,0-0.16,0.001-0.263,0.005c-0.102,0.003-0.219,0.008-0.351,0.015
			c-0.007,0.007-0.039,0.01-0.099,0.01H86.08h-0.158h-0.247c-0.514,0-0.771-0.326-0.771-0.979c0-0.52,0.257-0.78,0.771-0.78
			c1.667,0,2.941,0.115,3.824,0.346c1.515,0.429,2.272,1.285,2.272,2.569V98.967z M89.726,98.473c0-0.092-0.001-0.207-0.005-0.346
			c-0.003-0.139-0.008-0.3-0.015-0.484c-0.007-0.184-0.012-0.346-0.015-0.483c-0.003-0.139-0.005-0.254-0.005-0.347h-7.4
			c-0.435,0-0.883,0.079-1.344,0.237c-0.6,0.204-0.899,0.472-0.899,0.801v1.195c0,0.35,0.31,0.616,0.929,0.801
			c0.396,0.145,0.854,0.217,1.374,0.217h5.177c0.777,0,1.311-0.075,1.601-0.228C89.525,99.632,89.726,99.178,89.726,98.473z"/>
		<path fill="#737EBD" d="M100.396,93.385c0,0.514-0.26,0.771-0.78,0.771h-3.3v6.877c0,0.521-0.257,0.78-0.771,0.78
			c-0.508,0-0.804-0.023-0.89-0.069c-0.283-0.105-0.425-0.343-0.425-0.711v-6.877c-0.276,0-0.502-0.005-0.677-0.015
			c-0.175-0.011-0.298-0.021-0.37-0.035c-0.33-0.111-0.494-0.385-0.494-0.82c0-0.435,0.164-0.708,0.494-0.819
			c0.072-0.014,0.195-0.025,0.37-0.035s0.4-0.015,0.677-0.015v-1.867c0-0.514,0.257-0.771,0.771-0.771
			c0.508,0,0.804,0.022,0.89,0.068c0.283,0.1,0.425,0.333,0.425,0.702v1.867h3.3C100.137,92.416,100.396,92.739,100.396,93.385z"/>
		<path fill="#737EBD" d="M114.645,101.032c0,0.375-0.139,0.612-0.415,0.711c-0.086,0.046-0.385,0.069-0.899,0.069
			c-0.514,0-0.771-0.26-0.771-0.78v-5.583c0-0.586-0.349-0.972-1.047-1.156c-0.461-0.092-1.044-0.138-1.749-0.138h-6.126v6.877
			c0,0.521-0.257,0.78-0.771,0.78s-0.813-0.023-0.899-0.069c-0.276-0.099-0.415-0.336-0.415-0.711V90.549
			c0-0.382,0.139-0.619,0.415-0.712c0.105-0.039,0.405-0.059,0.899-0.059c0.514,0,0.771,0.257,0.771,0.771v1.867h5.632
			c1.666,0,2.836,0.132,3.508,0.396c1.245,0.448,1.867,1.317,1.867,2.608V101.032z"/>
	</g>
</g>
<g id="Layer_11" display="none">
	<text transform="matrix(1 0 0 1 15.8237 21.8784)" display="inline"><tspan x="0" y="0" fill="#535CA9" font-family="'Nyala-Regular'" font-size="30.3172">A</tspan><tspan x="16.861" y="0" fill="#535CA9" font-family="'Nyala-Regular'" font-size="22.2174">ftermath</tspan></text>
	<g display="inline">
		<polygon fill="#4B66B0" points="15.822,22.616 103.906,23.116 15.822,23.616 		"/>
	</g>
	<text transform="matrix(1 0 0 1 16.2666 49.3857)" display="inline"><tspan x="0" y="0" fill="#535CA9" font-family="'Nyala-Regular'" font-size="30.3172">A</tspan><tspan x="16.861" y="0" fill="#535CA9" font-family="'Nyala-Regular'" font-size="22.2174">ftermath</tspan></text>
	<g display="inline">
		<polygon fill="#5358A6" points="39.042,29.967 15.327,29.8 15.66,29.467 15.493,53.182 15.327,53.017 38.826,53.182 
			15.327,53.348 15.163,53.349 15.162,53.182 14.994,29.467 14.992,29.136 15.327,29.134 39.042,28.967 		"/>
	</g>
	<g display="inline">
		<polygon fill="#5358A6" points="80.958,28.967 104.673,29.134 105.008,29.136 105.006,29.467 104.839,53.182 104.837,53.349 
			104.673,53.348 81.174,53.182 104.673,53.017 104.507,53.182 104.34,29.467 104.673,29.8 80.958,29.967 		"/>
	</g>
	<text transform="matrix(1 0 0 1 10.3921 86.6006)" display="inline" fill="#3D52A3" font-family="'Neuropol'" font-size="40.214">M</text>
	
		<text transform="matrix(1 0 0 1 13.0352 95.6846)" display="inline" fill="#4A5094" font-family="'Sanseriffic'" font-size="9.6975">Aftermath</text>
	
		<line display="inline" fill="none" stroke="#5858A6" stroke-width="0.25" stroke-miterlimit="10" x1="6.104" y1="87.844" x2="57.74" y2="87.844"/>
	<text transform="matrix(1 0 0 1 24.0483 70.4316)" fill="#FFFFFF" font-family="'Neuropol'" font-size="66.7556">M</text>
	<g display="inline">
		<path fill="#71CEE6" d="M84.479,76.997c0,0.773-0.445,1.4-0.995,1.4H70.201c-0.551,0-0.996-0.627-0.996-1.4v-8.875
			c0-0.774,0.445-1.401,0.996-1.401h13.283c0.55,0,0.995,0.627,0.995,1.401V76.997z"/>
		<path fill="#71CEE6" d="M82.838,84.085c0,0.938-0.543,1.703-1.212,1.703h-8.003c-0.669,0-1.211-0.765-1.211-1.703v-7.191
			c0-0.94,0.542-1.702,1.211-1.702h8.003c0.669,0,1.212,0.762,1.212,1.702V84.085z"/>
		<path fill="#71CEE6" d="M98.621,76.997c0,0.773,0.447,1.4,0.998,1.4h13.282c0.55,0,0.994-0.627,0.994-1.4v-8.875
			c0-0.774-0.444-1.401-0.994-1.401H99.619c-0.551,0-0.998,0.627-0.998,1.401V76.997z"/>
		<path fill="#71CEE6" d="M100.265,84.085c0,0.938,0.543,1.703,1.211,1.703h8.003c0.668,0,1.211-0.765,1.211-1.703v-7.191
			c0-0.94-0.543-1.702-1.211-1.702h-8.003c-0.668,0-1.211,0.762-1.211,1.702V84.085z"/>
		<path fill="#71CEE6" d="M106.752,87.965c0,1.027-0.835,1.861-1.862,1.861H78.214c-1.028,0-1.862-0.834-1.862-1.861V65.105
			c0-1.027,0.834-1.859,1.862-1.859h26.676c1.027,0,1.862,0.832,1.862,1.859V87.965z"/>
		<text transform="matrix(1 0 0 1 76.7197 83.1914)" fill="#FFFFFF" font-family="'Neuropol'" font-size="23">M+</text>
		<text transform="matrix(1 0 0 1 68.8955 96.0361)" fill="#737EBD" font-family="'Neuropol'" font-size="8.2698">Aftermath</text>
	</g>
</g>
<g id="macot" display="none">
	<g id="Layer_10" display="inline">
	</g>
	<path display="inline" fill="#628FCA" d="M87.25,64.125c0,26.924-12.2,48.75-27.25,48.75s-27.25-21.826-27.25-48.75
		S31.563,15.375,60,15.375C88.75,15.375,87.25,37.201,87.25,64.125z"/>
	<path display="inline" fill="#8ABBCE" d="M82.125,64.125c0,21.862-9.907,39.585-22.127,39.585
		c-12.221,0-22.127-17.723-22.127-39.585S36.906,24.54,59.998,24.54C83.343,24.54,82.125,42.263,82.125,64.125z"/>
	<path display="inline" fill="#71CDE6" d="M102.667,18.526c0,2.194-2.238,3.974-5,3.974H22.333c-2.761,0-5-1.779-5-3.974v-2.119
		c0-2.194,2.239-3.973,5-3.973c0,0,20.542-4.934,37.667-4.934s37.667,4.934,37.667,4.934c2.762,0,5,1.779,5,3.973V18.526z"/>
	<circle display="inline" fill="#050606" cx="25.144" cy="16.063" r="8.41"/>
	<path display="inline" fill="#050606" d="M103.265,16.063c0,4.646-3.767,8.41-8.41,8.41c-4.642,0-8.409-3.764-8.409-8.41
		s3.768-8.41,8.409-8.41C99.498,7.653,103.265,11.417,103.265,16.063z"/>
	<path display="inline" fill="#6882C1" d="M51.8,19.146c0,0,8.72,5.438,16.4,0"/>
</g>
<g id="Layer_7" display="none">
	<path display="inline" fill="#2255A6" d="M120,105c0,8.284-6.716,15-15,15H15c-8.284,0-15-6.716-15-15V15C0,6.716,6.716,0,15,0h90
		c8.284,0,15,6.716,15,15V105z"/>
	<g display="inline">
		<path fill="#FFFFFF" d="M10.774,120.134c-3.7,0-6.699-8.867-6.699-19.812V21.918c0-10.939,2.999-19.809,6.699-19.809l0,0
			c3.699,0,6.697,8.87,6.697,19.809v78.404C17.471,111.267,14.473,120.134,10.774,120.134L10.774,120.134z"/>
		<path fill="#FFFFFF" d="M107.694,120c-3.696,0-6.702-8.866-6.702-19.812V21.785c0-10.939,3.006-19.809,6.702-19.809l0,0
			c3.698,0,6.699,8.87,6.699,19.809v78.404C114.394,111.134,111.393,120,107.694,120L107.694,120z"/>
		<path fill="#FFFFFF" d="M57.263,69.543c-2.087-2.623,0.185-9.76,5.074-15.921L97.354,9.438c4.886-6.164,10.533-9.026,12.62-6.397
			l0,0c2.086,2.63-0.19,9.759-5.076,15.926L69.885,63.149C64.999,69.313,59.346,72.176,57.263,69.543L57.263,69.543z"/>
		<path fill="#FFFFFF" d="M61.631,69.542c2.084-2.623-0.188-9.758-5.076-15.92L21.539,9.439C16.651,3.276,11.001,0.414,8.915,3.042
			l0,0c-2.082,2.63,0.19,9.759,5.075,15.926l35.015,44.18C53.894,69.313,59.545,72.175,61.631,69.542L61.631,69.542z"/>
	</g>
</g>
</svg>
